<svg xmlns="http://www.w3.org/2000/svg" width="459.106" height="319.524" viewBox="0 0 459.106 319.524">
  <g id="Group_1" data-name="Group 1" transform="translate(0)">
    <path id="Path_2" data-name="Path 2" d="M199.855,634.444l-.611-1.1c8.2-4.329,18.4-9.715,23.724-18.555,5.252-8.715,5.37-20.548.308-30.883-4.308-8.8-12.222-16.676-22.886-22.789-2.1-1.206-4.311-2.349-6.447-3.454-5.162-2.671-10.5-5.434-14.9-9.353-6.061-5.4-10.648-14.456-7.229-22.524A15.322,15.322,0,0,1,185.1,516.7l.073,1.253A14.041,14.041,0,0,0,173,526.271c-3.176,7.5,1.182,16.006,6.911,21.109,4.281,3.812,9.545,6.536,14.635,9.171,2.147,1.111,4.368,2.261,6.5,3.48,10.886,6.24,18.975,14.307,23.395,23.329,5.244,10.707,5.107,22.992-.359,32.062C218.566,624.563,208.191,630.042,199.855,634.444Z" transform="translate(-156.154 -315.08)" fill="#f1f1f1"/>
    <ellipse id="Ellipse_1" data-name="Ellipse 1" cx="11.247" cy="5.334" rx="11.247" ry="5.334" transform="translate(25.848 197.569)" fill="#f1f1f1"/>
    <ellipse id="Ellipse_2" data-name="Ellipse 2" cx="11.247" cy="5.334" rx="11.247" ry="5.334" transform="translate(34.845 232.713)" fill="#f1f1f1"/>
    <ellipse id="Ellipse_3" data-name="Ellipse 3" cx="11.247" cy="5.334" rx="11.247" ry="5.334" transform="translate(14.28 238.361)" fill="#f1f1f1"/>
    <ellipse id="Ellipse_4" data-name="Ellipse 4" cx="11.247" cy="5.334" rx="11.247" ry="5.334" transform="translate(46.413 267.857)" fill="#f1f1f1"/>
    <ellipse id="Ellipse_5" data-name="Ellipse 5" cx="11.247" cy="5.334" rx="11.247" ry="5.334" transform="translate(68.906 267.857)" fill="#f1f1f1"/>
    <rect id="Rectangle_62" data-name="Rectangle 62" width="165.366" height="167.596" transform="translate(219.154 9.683)" fill="#e6e6e6"/>
    <rect id="Rectangle_75" data-name="Rectangle 75" width="149.236" height="139.831" transform="translate(229.496 24.055)" fill="#fff"/>
    <path id="Rectangle_80" data-name="Rectangle 80" d="M0,0H161.638V15H0Z" transform="translate(219)" fill="#11dc83"/>
    <ellipse id="Ellipse_90" data-name="Ellipse 90" cx="2.848" cy="2.781" rx="2.848" ry="2.781" transform="translate(227.571 4.159)" fill="#fff"/>
    <ellipse id="Ellipse_91" data-name="Ellipse 91" cx="2.848" cy="2.781" rx="2.848" ry="2.781" transform="translate(238.38 4.159)" fill="#fff"/>
    <ellipse id="Ellipse_92" data-name="Ellipse 92" cx="2.848" cy="2.781" rx="2.848" ry="2.781" transform="translate(249.19 4.159)" fill="#fff"/>
    <path id="Path_142" data-name="Path 142" d="M741.762,286.635a1.348,1.348,0,1,0,0,2.695H817.47a1.348,1.348,0,1,0,0-2.695Z" transform="translate(-359.744 -229.396)" fill="#e6e6e6"/>
    <path id="Path_143" data-name="Path 143" d="M741.762,299.518a1.348,1.348,0,1,0,0,2.695h38.65a1.348,1.348,0,1,0,0-2.695Z" transform="translate(-359.744 -234.194)" fill="#e6e6e6"/>
    <path id="Path_142-2" data-name="Path 142" d="M737.435,361.871c-.01,0-.018.6-.018,1.347s.008,1.347.018,1.347H739.3c.01,0,.018-.6.018-1.347s-.008-1.347-.018-1.347Z" transform="translate(-358.684 -257.416)" fill="#e6e6e6"/>
    <path id="Path_143-2" data-name="Path 143" d="M737.435,374.754c-.01,0-.018.6-.018,1.347s.008,1.347.018,1.347h1.381c.01,0,.018-.6.018-1.347s-.008-1.347-.018-1.347Z" transform="translate(-358.684 -262.214)" fill="#e6e6e6"/>
    <path id="Path_142-3" data-name="Path 142" d="M737.435,387.345c-.01,0-.018.6-.018,1.347s.008,1.347.018,1.347H739.3c.01,0,.018-.6.018-1.347s-.008-1.347-.018-1.347Z" transform="translate(-358.684 -266.903)" fill="#e6e6e6"/>
    <path id="Path_143-3" data-name="Path 143" d="M737.435,400.227c-.01,0-.018.6-.018,1.347s.008,1.347.018,1.347h1.381c.01,0,.018-.6.018-1.347s-.008-1.347-.018-1.347Z" transform="translate(-358.684 -271.701)" fill="#e6e6e6"/>
    <ellipse id="Ellipse_6" data-name="Ellipse 6" cx="12.014" cy="11.732" rx="12.014" ry="11.732" transform="translate(293.885 86.459)" fill="#a0616a"/>
    <path id="Path_3" data-name="Path 3" d="M610.207,330.69s5.607,1.466,8.51,2.053,2.6-1.075,2.6-1.075,3.8.489,3.6.1,1.6-2.444-.5-4.791-1.5-4.106-1.5-4.106h-1.8l-.5-.684h-2.8s-3.1-2.654-8.606-1.872-12.018,2.849-12.619,6.076c-.082.438-.189.924-.313,1.437-1.506,6.208,1.694,12.016,5.012,17.511.816,1.35,4.76,4.3,4.659,2.275s-3.551-6.558-1.148-6.851S611.308,334.5,610.207,330.69Z" transform="translate(-308.113 -241.885)" fill="#2f2e41"/>
    <path id="Path_4" data-name="Path 4" d="M609.657,399.158a42.954,42.954,0,0,1-6.876-1.1l.126-2.34,1.052-18.6.01-.143h21.163l3.321,17.128.448,2.311c-.876.333-1.763.647-2.668.922-.01,0-.01.01-.019.01-1.256.38-2.532.713-3.818.989a45.04,45.04,0,0,1-5.181.78q-2.019.2-4.051.19C611.994,399.3,610.816,399.253,609.657,399.158Z" transform="translate(-310.573 -263.039)" fill="#11dc83"/>
    <path id="Path_5" data-name="Path 5" d="M587.116,395.842c-.877-.371-1.724-.77-2.561-1.189l-.36-.181c-.243-.124-.5-.257-.74-.39q-.5-.271-.964-.542c-.3-.171-.613-.352-.915-.533-.019-.01-.029-.019-.048-.019-1.052-.656-2.084-1.332-3.078-2.064l-.5-.371-.175-2.739.253-.152,17-10.557.234-.143.019-.009,2.4.009v8.712c1.354,1.912,2.269,5.915,2.834,11.156.078.751.146,1.522.214,2.321a42.947,42.947,0,0,1-6.876-1.1c-.244-.048-.477-.1-.721-.171a41,41,0,0,1-4.188-1.312c-.419-.152-.828-.314-1.237-.476l-.039-.019C587.486,395.995,587.291,395.919,587.116,395.842Z" transform="translate(-301.638 -263.034)" fill="#2f2e41"/>
    <path id="Path_6" data-name="Path 6" d="M582.366,400.529q-.5-.271-.964-.542c-.3-.171-.613-.352-.915-.533-.02-.009-.029-.019-.048-.019-1.052-.656-2.084-1.331-3.078-2.064l-.5-.371c-.078-.067-.156-.124-.244-.19-.623-.466-1.227-.951-1.811-1.465-.029-.019-.049-.048-.078-.067a6.749,6.749,0,0,1,1.958-1.018l.692.2,4.928,1.445.029,1.95Z" transform="translate(-300.55 -269.479)" fill="#2f2e41"/>
    <path id="Path_7" data-name="Path 7" d="M644.794,393.84c-.292.152-.584.3-.876.447-.068.038-.127.067-.185.1-.39.19-.769.38-1.159.561-.01.009-.029.009-.029.019-.02.009-.049.019-.068.029-.876.409-1.763.789-2.669,1.141-.876.333-1.763.647-2.668.923-.01,0-.01.01-.019.01-1.256.38-2.532.713-3.818.989a7.675,7.675,0,0,1,.312-2.311l.009-.133.838-13.239-1.12-5.678,3.214-.466,17.676,9.292s-1.948,1.9-9.944,5.954C643.58,391.831,644.618,393.023,644.794,393.84Z" transform="translate(-321.479 -262.763)" fill="#2f2e41"/>
    <path id="Path_8" data-name="Path 8" d="M598.838,360.2c-1.266.114-2.552.171-3.837.171-1.247,0-2.484-.048-3.721-.162.078.751.146,1.522.214,2.321,1.159.1,2.337.143,3.506.143q2.029.006,4.051-.19a45.024,45.024,0,0,0,5.181-.78,7.676,7.676,0,0,1,.312-2.311l.009-.133A41.373,41.373,0,0,1,598.838,360.2Zm36.8-53.373a43.451,43.451,0,0,0-78.649-5.914,41.228,41.228,0,0,0,4.272,45.839c.389.476.789.951,1.2,1.408.039.038.058.067.088.1a40.49,40.49,0,0,0,3.2,3.224c.273.247.555.495.838.732.029.019.049.048.078.067.585.514,1.188,1,1.811,1.465.088.067.166.124.243.19l.5.371c.993.732,2.026,1.408,3.078,2.064.019,0,.029.009.049.019.3.181.613.361.915.533s.634.361.964.542c.243.133.5.266.74.39l.361.181c.837.418,1.685.818,2.561,1.189.175.076.37.152.545.228l.039.019c.409.162.818.323,1.237.476a41.011,41.011,0,0,0,4.188,1.312c.243.067.477.124.721.171a42.939,42.939,0,0,0,6.876,1.1c1.159.1,2.337.143,3.506.143q2.029.006,4.051-.19a45.038,45.038,0,0,0,5.181-.78c1.286-.276,2.562-.609,3.818-.989.009,0,.009-.009.019-.009.905-.276,1.792-.59,2.668-.923.906-.352,1.792-.732,2.669-1.141.02-.009.049-.019.068-.029,0-.01.019-.01.029-.019.389-.181.769-.371,1.159-.561.059-.029.117-.057.185-.1.292-.143.584-.295.876-.447.019-.01.029-.019.048-.029.769-.418,1.529-.856,2.279-1.322.2-.124.409-.247.613-.39.3-.181.594-.38.876-.58.38-.257.759-.523,1.13-.8a3,3,0,0,0,.351-.257c.906-.666,1.782-1.37,2.62-2.111a41.342,41.342,0,0,0,12-45.175Zm-12.729,42.721a41.412,41.412,0,0,1-3.311,2.739c-.253.19-.516.38-.779.552-.253.19-.507.371-.769.542-.224.152-.448.3-.682.447-.02.019-.049.029-.068.048-.166.114-.341.219-.506.323-.516.314-1.052.628-1.578.923-.126.067-.243.143-.37.209-.068.038-.136.076-.214.114-.292.162-.584.3-.876.457-.039.029-.088.038-.126.067a.073.073,0,0,0-.039.019c-.2.1-.409.2-.614.295-.176.086-.341.171-.516.247-.711.333-1.441.647-2.172.942-.769.3-1.548.58-2.337.837-.2.067-.4.143-.6.2-.925.285-1.85.542-2.8.751a41.377,41.377,0,0,1-5.716.941c-1.266.114-2.552.171-3.837.171-1.247,0-2.484-.048-3.721-.162a40.962,40.962,0,0,1-6.535-1.122l-.244-.057a37.958,37.958,0,0,1-5.152-1.712c-.087-.038-.185-.067-.263-.1-.1-.038-.185-.067-.263-.1-.1-.038-.185-.076-.273-.114-.73-.314-1.441-.656-2.152-1.008l-.331-.171c-.633-.323-1.256-.656-1.87-1.027-.214-.114-.438-.247-.653-.38-.243-.143-.487-.295-.721-.447l-.175-.114c-.546-.361-1.1-.723-1.626-1.113-.37-.266-.73-.523-1.091-.8-.234-.171-.467-.352-.691-.542-.146-.1-.292-.228-.439-.352-.194-.162-.389-.323-.584-.495-.3-.238-.584-.5-.857-.751a38.23,38.23,0,0,1-3.107-3.138c-.331-.361-.643-.723-.945-1.1a2.317,2.317,0,0,1-.2-.238,39.082,39.082,0,0,1,5.722-55.083,41.372,41.372,0,0,1,56.548,4,39.063,39.063,0,0,1-2.472,55.313Z" transform="translate(-292.411 -226.408)" fill="#3f3d56"/>
    <path id="Path_9" data-name="Path 9" d="M163.435,479.086h7.879l3.748-29.676H163.434Z" transform="translate(-58.402 -167.374)" fill="#a0616a"/>
    <path id="Path_10" data-name="Path 10" d="M308.406,688.121h15.517a9.775,9.775,0,0,1,9.888,9.656v.315h-25.4Z" transform="translate(-205.382 -378.921)" fill="#2f2e41"/>
    <path id="Path_11" data-name="Path 11" d="M209.435,479.086h7.879l3.748-29.676H209.434Z" transform="translate(-74.839 -167.374)" fill="#a0616a"/>
    <path id="Path_12" data-name="Path 12" d="M354.406,688.121h15.517a9.775,9.775,0,0,1,9.888,9.656v.315h-25.4Z" transform="translate(-221.819 -378.921)" fill="#2f2e41"/>
    <path id="Path_13" data-name="Path 13" d="M268.064,486.642a6.217,6.217,0,0,0,1.691-5.078,6.3,6.3,0,0,0-2.9-4.526l5.474-21.78-11.242,3.912-3.475,20.083a6.251,6.251,0,0,0,1.865,8.228A6.611,6.611,0,0,0,268.064,486.642Z" transform="translate(-186.936 -292.196)" fill="#9e616a"/>
    <path id="Path_14" data-name="Path 14" d="M402.1,483.643a6.217,6.217,0,0,1-1.691-5.078,6.3,6.3,0,0,1,2.9-4.526l-5.474-21.779,11.242,3.912,3.475,20.083a6.252,6.252,0,0,1-1.865,8.228,6.611,6.611,0,0,1-8.587-.839Z" transform="translate(-237.34 -291.079)" fill="#9e616a"/>
    <path id="Path_15" data-name="Path 15" d="M142.367,280.137l10.921,124.927,15.979-1.423,6.4-96.552,5.693,38.23,1.14,60.727,14.46-.941,8.029-65.33-1.97-63.27-54.894-5.428Z" transform="translate(-50.874 -100.958)" fill="#2f2e41"/>
    <ellipse id="Ellipse_7" data-name="Ellipse 7" cx="16.571" cy="16.182" rx="16.571" ry="16.182" transform="translate(104.963 33.134)" fill="#a0616a"/>
    <path id="Path_16" data-name="Path 16" d="M318.066,244.768s7.733,2.023,11.738,2.832,3.591-1.483,3.591-1.483,5.248.674,4.971.135,2.21-3.371-.69-6.608-2.071-5.664-2.071-5.664h-2.486l-.69-.944h-3.867s-4.275-3.661-11.87-2.582-16.577,3.93-17.406,8.381c-.112.6-.26,1.274-.432,1.982-2.077,8.562,2.336,16.574,6.913,24.153,1.125,1.863,6.566,5.925,6.427,3.138s-4.9-9.046-1.584-9.45S319.585,250.028,318.066,244.768Z" transform="translate(-201.779 -208.398)" fill="#2f2e41"/>
    <path id="Path_17" data-name="Path 17" d="M307.135,308.6h29.184l20.636,106.42s-17.991,1.5-28.273,5.268-27.376-8.6-27.376-8.6Z" transform="translate(-202.844 -237.578)" fill="rgba(17,220,131,0.85)"/>
    <path id="Path_18" data-name="Path 18" d="M300.783,320.61V308.592l-3.3-.02-24.143,14.99,5.239,82.126s6.2,27.4,15.6,27.114S310.836,334.844,300.783,320.61Z" transform="translate(-192.85 -237.566)" fill="#2f2e41"/>
    <path id="Path_19" data-name="Path 19" d="M275.149,334.727l-7.755-2.269s-5.741,1.641-5.741,7.289-4.946,85.894-4.946,85.894L272.421,427l3.371-40.81Z" transform="translate(-186.908 -246.462)" fill="#2f2e41"/>
    <path id="Path_20" data-name="Path 20" d="M351.506,316.045l-1.546-7.825,4.438-.647,16.066,6.276s14.46,103.235,8.033,106.373-10.766.707-10.766.707-21.138-76.141-17.4-86.433Z" transform="translate(-220.206 -237.194)" fill="#2f2e41"/>
    <path id="Path_21" data-name="Path 21" d="M364.4,318.809l2.742-1.165s8.048-3.895,12.614,3.97,20.633,95.724,20.633,95.724l-13.22,2.427-9.883-31.619Z" transform="translate(-225.392 -240.585)" fill="#2f2e41"/>
    <path id="Path_22" data-name="Path 22" d="M393.592,703.828H148.739a.628.628,0,1,1,0-1.255H393.592a.628.628,0,1,1,0,1.255Z" transform="translate(-148.096 -384.304)" fill="#cacaca"/>
  </g>
</svg>